<mxfile host="app.diagrams.net" modified="2021-08-16T07:47:33.334Z" agent="5.0 (Windows NT 10.0; Win64; x64) AppleWebKit/537.36 (KHTML, like Gecko) Chrome/92.0.4515.131 Safari/537.36" etag="W17nVGitafGvVVBPdgt1" version="14.9.6" type="github">
  <diagram id="C5RBs43oDa-KdzZeNtuy" name="Page-1">
    <mxGraphModel dx="2560" dy="1453" grid="1" gridSize="10" guides="1" tooltips="1" connect="1" arrows="1" fold="1" page="1" pageScale="1" pageWidth="827" pageHeight="1169" math="0" shadow="0">
      <root>
        <mxCell id="WIyWlLk6GJQsqaUBKTNV-0" />
        <mxCell id="WIyWlLk6GJQsqaUBKTNV-1" parent="WIyWlLk6GJQsqaUBKTNV-0" />
        <mxCell id="WIyWlLk6GJQsqaUBKTNV-2" value="" style="rounded=0;html=1;jettySize=auto;orthogonalLoop=1;fontSize=11;endArrow=block;endFill=0;endSize=8;strokeWidth=1;shadow=0;labelBackgroundColor=none;edgeStyle=orthogonalEdgeStyle;" parent="WIyWlLk6GJQsqaUBKTNV-1" source="WIyWlLk6GJQsqaUBKTNV-3" target="WIyWlLk6GJQsqaUBKTNV-6" edge="1">
          <mxGeometry relative="1" as="geometry">
            <Array as="points">
              <mxPoint x="60" y="290" />
            </Array>
          </mxGeometry>
        </mxCell>
        <mxCell id="yVg1O4QGDpadz5h29c0V-4" style="edgeStyle=orthogonalEdgeStyle;rounded=0;orthogonalLoop=1;jettySize=auto;html=1;entryX=0;entryY=0.5;entryDx=0;entryDy=0;" edge="1" parent="WIyWlLk6GJQsqaUBKTNV-1" source="WIyWlLk6GJQsqaUBKTNV-3" target="yVg1O4QGDpadz5h29c0V-5">
          <mxGeometry relative="1" as="geometry">
            <mxPoint x="90" y="570" as="targetPoint" />
            <Array as="points">
              <mxPoint x="60" y="970" />
            </Array>
          </mxGeometry>
        </mxCell>
        <mxCell id="yVg1O4QGDpadz5h29c0V-85" value="submissionId" style="edgeLabel;html=1;align=center;verticalAlign=middle;resizable=0;points=[];fontSize=12;" vertex="1" connectable="0" parent="yVg1O4QGDpadz5h29c0V-4">
          <mxGeometry x="0.6457" y="-2" relative="1" as="geometry">
            <mxPoint x="43" y="-12" as="offset" />
          </mxGeometry>
        </mxCell>
        <mxCell id="WIyWlLk6GJQsqaUBKTNV-3" value="Candra Web App" style="rounded=1;whiteSpace=wrap;html=1;fontSize=12;glass=0;strokeWidth=1;shadow=0;" parent="WIyWlLk6GJQsqaUBKTNV-1" vertex="1">
          <mxGeometry y="510" width="120" height="40" as="geometry" />
        </mxCell>
        <mxCell id="yVg1O4QGDpadz5h29c0V-29" style="edgeStyle=orthogonalEdgeStyle;rounded=0;orthogonalLoop=1;jettySize=auto;html=1;fontSize=12;" edge="1" parent="WIyWlLk6GJQsqaUBKTNV-1" source="WIyWlLk6GJQsqaUBKTNV-6" target="yVg1O4QGDpadz5h29c0V-28">
          <mxGeometry relative="1" as="geometry" />
        </mxCell>
        <mxCell id="WIyWlLk6GJQsqaUBKTNV-6" value="Submit code" style="rhombus;whiteSpace=wrap;html=1;shadow=0;fontFamily=Helvetica;fontSize=12;align=center;strokeWidth=1;spacing=6;spacingTop=-4;direction=west;" parent="WIyWlLk6GJQsqaUBKTNV-1" vertex="1">
          <mxGeometry x="110" y="250" width="110" height="80" as="geometry" />
        </mxCell>
        <mxCell id="yVg1O4QGDpadz5h29c0V-26" style="edgeStyle=orthogonalEdgeStyle;rounded=0;orthogonalLoop=1;jettySize=auto;html=1;entryX=0.75;entryY=1;entryDx=0;entryDy=0;fontSize=12;exitX=0.5;exitY=0;exitDx=0;exitDy=0;" edge="1" parent="WIyWlLk6GJQsqaUBKTNV-1" source="yVg1O4QGDpadz5h29c0V-83" target="WIyWlLk6GJQsqaUBKTNV-3">
          <mxGeometry relative="1" as="geometry">
            <Array as="points">
              <mxPoint x="645" y="880" />
              <mxPoint x="90" y="880" />
            </Array>
          </mxGeometry>
        </mxCell>
        <mxCell id="yVg1O4QGDpadz5h29c0V-88" style="edgeStyle=orthogonalEdgeStyle;rounded=0;orthogonalLoop=1;jettySize=auto;html=1;entryX=0;entryY=0.5;entryDx=0;entryDy=0;fontSize=12;" edge="1" parent="WIyWlLk6GJQsqaUBKTNV-1" source="yVg1O4QGDpadz5h29c0V-5" target="yVg1O4QGDpadz5h29c0V-83">
          <mxGeometry relative="1" as="geometry" />
        </mxCell>
        <mxCell id="yVg1O4QGDpadz5h29c0V-91" value="not exist" style="edgeLabel;html=1;align=center;verticalAlign=middle;resizable=0;points=[];fontSize=12;" vertex="1" connectable="0" parent="yVg1O4QGDpadz5h29c0V-88">
          <mxGeometry x="0.1178" y="6" relative="1" as="geometry">
            <mxPoint x="8" y="-4" as="offset" />
          </mxGeometry>
        </mxCell>
        <mxCell id="yVg1O4QGDpadz5h29c0V-89" style="edgeStyle=orthogonalEdgeStyle;rounded=0;orthogonalLoop=1;jettySize=auto;html=1;fontSize=12;" edge="1" parent="WIyWlLk6GJQsqaUBKTNV-1" source="yVg1O4QGDpadz5h29c0V-5">
          <mxGeometry relative="1" as="geometry">
            <mxPoint x="110" y="550" as="targetPoint" />
            <Array as="points">
              <mxPoint x="340" y="970" />
              <mxPoint x="340" y="710" />
              <mxPoint x="110" y="710" />
            </Array>
          </mxGeometry>
        </mxCell>
        <mxCell id="yVg1O4QGDpadz5h29c0V-90" value="error.json" style="edgeLabel;html=1;align=center;verticalAlign=middle;resizable=0;points=[];fontSize=12;" vertex="1" connectable="0" parent="yVg1O4QGDpadz5h29c0V-89">
          <mxGeometry x="-0.8845" y="1" relative="1" as="geometry">
            <mxPoint x="-11" y="-9" as="offset" />
          </mxGeometry>
        </mxCell>
        <mxCell id="yVg1O4QGDpadz5h29c0V-92" value="error exist" style="edgeLabel;html=1;align=center;verticalAlign=middle;resizable=0;points=[];fontSize=12;rotation=270;" vertex="1" connectable="0" parent="yVg1O4QGDpadz5h29c0V-89">
          <mxGeometry x="-0.4047" y="2" relative="1" as="geometry">
            <mxPoint x="-8" y="-48" as="offset" />
          </mxGeometry>
        </mxCell>
        <mxCell id="yVg1O4QGDpadz5h29c0V-5" value="Check Result" style="rounded=1;whiteSpace=wrap;html=1;" vertex="1" parent="WIyWlLk6GJQsqaUBKTNV-1">
          <mxGeometry x="160" y="940" width="120" height="60" as="geometry" />
        </mxCell>
        <mxCell id="yVg1O4QGDpadz5h29c0V-25" value="submissionId" style="text;html=1;align=center;verticalAlign=middle;resizable=0;points=[];autosize=1;strokeColor=none;fontSize=12;rotation=0;" vertex="1" parent="WIyWlLk6GJQsqaUBKTNV-1">
          <mxGeometry x="260" y="510" width="90" height="20" as="geometry" />
        </mxCell>
        <mxCell id="yVg1O4QGDpadz5h29c0V-32" style="edgeStyle=orthogonalEdgeStyle;rounded=0;orthogonalLoop=1;jettySize=auto;html=1;entryX=0;entryY=0.5;entryDx=0;entryDy=0;fontSize=12;exitX=1;exitY=0.5;exitDx=0;exitDy=0;entryPerimeter=0;" edge="1" parent="WIyWlLk6GJQsqaUBKTNV-1" source="yVg1O4QGDpadz5h29c0V-28" target="yVg1O4QGDpadz5h29c0V-31">
          <mxGeometry relative="1" as="geometry">
            <Array as="points" />
          </mxGeometry>
        </mxCell>
        <mxCell id="yVg1O4QGDpadz5h29c0V-34" value="success" style="edgeLabel;html=1;align=center;verticalAlign=middle;resizable=0;points=[];fontSize=12;" vertex="1" connectable="0" parent="yVg1O4QGDpadz5h29c0V-32">
          <mxGeometry x="0.232" y="-5" relative="1" as="geometry">
            <mxPoint x="-16" y="-15" as="offset" />
          </mxGeometry>
        </mxCell>
        <mxCell id="yVg1O4QGDpadz5h29c0V-44" style="edgeStyle=orthogonalEdgeStyle;rounded=0;orthogonalLoop=1;jettySize=auto;html=1;entryX=1;entryY=0.5;entryDx=0;entryDy=0;fontSize=12;exitX=0.5;exitY=1;exitDx=0;exitDy=0;" edge="1" parent="WIyWlLk6GJQsqaUBKTNV-1" source="yVg1O4QGDpadz5h29c0V-28" target="yVg1O4QGDpadz5h29c0V-35">
          <mxGeometry relative="1" as="geometry">
            <Array as="points">
              <mxPoint x="335" y="380" />
            </Array>
          </mxGeometry>
        </mxCell>
        <mxCell id="yVg1O4QGDpadz5h29c0V-45" value="failure" style="edgeLabel;html=1;align=center;verticalAlign=middle;resizable=0;points=[];fontSize=12;" vertex="1" connectable="0" parent="yVg1O4QGDpadz5h29c0V-44">
          <mxGeometry x="0.0963" relative="1" as="geometry">
            <mxPoint x="-22" y="-10" as="offset" />
          </mxGeometry>
        </mxCell>
        <mxCell id="yVg1O4QGDpadz5h29c0V-28" value="Setup submission directory" style="ellipse;whiteSpace=wrap;html=1;fontSize=12;" vertex="1" parent="WIyWlLk6GJQsqaUBKTNV-1">
          <mxGeometry x="275" y="260" width="120" height="60" as="geometry" />
        </mxCell>
        <mxCell id="yVg1O4QGDpadz5h29c0V-46" style="edgeStyle=orthogonalEdgeStyle;rounded=0;orthogonalLoop=1;jettySize=auto;html=1;fontSize=12;entryX=1;entryY=0.5;entryDx=0;entryDy=0;exitX=0;exitY=0.75;exitDx=0;exitDy=0;" edge="1" parent="WIyWlLk6GJQsqaUBKTNV-1" source="yVg1O4QGDpadz5h29c0V-31" target="WIyWlLk6GJQsqaUBKTNV-3">
          <mxGeometry relative="1" as="geometry">
            <mxPoint x="525" y="540" as="targetPoint" />
            <Array as="points">
              <mxPoint x="450" y="302" />
              <mxPoint x="450" y="400" />
              <mxPoint x="390" y="400" />
              <mxPoint x="390" y="530" />
            </Array>
          </mxGeometry>
        </mxCell>
        <mxCell id="yVg1O4QGDpadz5h29c0V-62" style="edgeStyle=orthogonalEdgeStyle;rounded=0;orthogonalLoop=1;jettySize=auto;html=1;entryX=0;entryY=0.5;entryDx=0;entryDy=0;fontSize=12;" edge="1" parent="WIyWlLk6GJQsqaUBKTNV-1" source="yVg1O4QGDpadz5h29c0V-31" target="yVg1O4QGDpadz5h29c0V-61">
          <mxGeometry relative="1" as="geometry" />
        </mxCell>
        <mxCell id="yVg1O4QGDpadz5h29c0V-31" value="Setup went well" style="shape=hexagon;perimeter=hexagonPerimeter2;whiteSpace=wrap;html=1;fixedSize=1;fontSize=12;size=10;" vertex="1" parent="WIyWlLk6GJQsqaUBKTNV-1">
          <mxGeometry x="510" y="265" width="110" height="50" as="geometry" />
        </mxCell>
        <mxCell id="yVg1O4QGDpadz5h29c0V-41" style="edgeStyle=orthogonalEdgeStyle;rounded=0;orthogonalLoop=1;jettySize=auto;html=1;fontSize=12;exitX=0;exitY=0.5;exitDx=0;exitDy=0;" edge="1" parent="WIyWlLk6GJQsqaUBKTNV-1" source="yVg1O4QGDpadz5h29c0V-35">
          <mxGeometry relative="1" as="geometry">
            <mxPoint x="90" y="510" as="targetPoint" />
            <Array as="points">
              <mxPoint x="90" y="380" />
            </Array>
          </mxGeometry>
        </mxCell>
        <mxCell id="yVg1O4QGDpadz5h29c0V-42" value="please try again" style="edgeLabel;html=1;align=center;verticalAlign=middle;resizable=0;points=[];fontSize=12;rotation=270;" vertex="1" connectable="0" parent="yVg1O4QGDpadz5h29c0V-41">
          <mxGeometry x="-0.2773" relative="1" as="geometry">
            <mxPoint x="-10" y="29" as="offset" />
          </mxGeometry>
        </mxCell>
        <mxCell id="yVg1O4QGDpadz5h29c0V-35" value="Fail to setup" style="shape=hexagon;perimeter=hexagonPerimeter2;whiteSpace=wrap;html=1;fixedSize=1;fontSize=12;size=10;" vertex="1" parent="WIyWlLk6GJQsqaUBKTNV-1">
          <mxGeometry x="115" y="350" width="100" height="60" as="geometry" />
        </mxCell>
        <mxCell id="yVg1O4QGDpadz5h29c0V-66" style="edgeStyle=orthogonalEdgeStyle;rounded=0;orthogonalLoop=1;jettySize=auto;html=1;entryX=1;entryY=0.5;entryDx=0;entryDy=0;fontSize=12;" edge="1" parent="WIyWlLk6GJQsqaUBKTNV-1" source="yVg1O4QGDpadz5h29c0V-58" target="yVg1O4QGDpadz5h29c0V-65">
          <mxGeometry relative="1" as="geometry" />
        </mxCell>
        <mxCell id="yVg1O4QGDpadz5h29c0V-58" value="CE, RTE" style="ellipse;whiteSpace=wrap;html=1;fontSize=12;" vertex="1" parent="WIyWlLk6GJQsqaUBKTNV-1">
          <mxGeometry x="620" y="90" width="120" height="60" as="geometry" />
        </mxCell>
        <mxCell id="yVg1O4QGDpadz5h29c0V-63" style="edgeStyle=orthogonalEdgeStyle;rounded=0;orthogonalLoop=1;jettySize=auto;html=1;entryX=0.5;entryY=1;entryDx=0;entryDy=0;fontSize=12;exitX=1;exitY=0.5;exitDx=0;exitDy=0;" edge="1" parent="WIyWlLk6GJQsqaUBKTNV-1" source="yVg1O4QGDpadz5h29c0V-61" target="yVg1O4QGDpadz5h29c0V-58">
          <mxGeometry relative="1" as="geometry" />
        </mxCell>
        <mxCell id="yVg1O4QGDpadz5h29c0V-69" value="on error" style="edgeLabel;html=1;align=center;verticalAlign=middle;resizable=0;points=[];fontSize=12;" vertex="1" connectable="0" parent="yVg1O4QGDpadz5h29c0V-63">
          <mxGeometry x="0.3728" y="2" relative="1" as="geometry">
            <mxPoint x="20" y="-17" as="offset" />
          </mxGeometry>
        </mxCell>
        <mxCell id="yVg1O4QGDpadz5h29c0V-67" style="edgeStyle=orthogonalEdgeStyle;rounded=0;orthogonalLoop=1;jettySize=auto;html=1;fontSize=12;entryX=1;entryY=0.5;entryDx=0;entryDy=0;exitX=1;exitY=0.5;exitDx=0;exitDy=0;" edge="1" parent="WIyWlLk6GJQsqaUBKTNV-1" source="yVg1O4QGDpadz5h29c0V-61" target="yVg1O4QGDpadz5h29c0V-68">
          <mxGeometry relative="1" as="geometry">
            <mxPoint x="790" y="490" as="targetPoint" />
          </mxGeometry>
        </mxCell>
        <mxCell id="yVg1O4QGDpadz5h29c0V-70" value="on success" style="edgeLabel;html=1;align=center;verticalAlign=middle;resizable=0;points=[];fontSize=12;" vertex="1" connectable="0" parent="yVg1O4QGDpadz5h29c0V-67">
          <mxGeometry x="0.4022" y="-1" relative="1" as="geometry">
            <mxPoint x="-20" y="-9" as="offset" />
          </mxGeometry>
        </mxCell>
        <mxCell id="yVg1O4QGDpadz5h29c0V-61" value="&lt;span&gt;Mock execution, check CE, RTE&lt;/span&gt;" style="shape=process;whiteSpace=wrap;html=1;backgroundOutline=1;fontSize=12;" vertex="1" parent="WIyWlLk6GJQsqaUBKTNV-1">
          <mxGeometry x="650" y="260" width="120" height="60" as="geometry" />
        </mxCell>
        <mxCell id="yVg1O4QGDpadz5h29c0V-65" value="&lt;font style=&quot;font-size: 16px&quot;&gt;Write file to error.json&lt;/font&gt;" style="whiteSpace=wrap;html=1;aspect=fixed;fontSize=12;" vertex="1" parent="WIyWlLk6GJQsqaUBKTNV-1">
          <mxGeometry x="400" y="65" width="110" height="110" as="geometry" />
        </mxCell>
        <mxCell id="yVg1O4QGDpadz5h29c0V-73" style="edgeStyle=orthogonalEdgeStyle;rounded=0;orthogonalLoop=1;jettySize=auto;html=1;fontSize=12;entryX=0.5;entryY=0;entryDx=0;entryDy=0;exitX=0.5;exitY=1;exitDx=0;exitDy=0;" edge="1" parent="WIyWlLk6GJQsqaUBKTNV-1" source="yVg1O4QGDpadz5h29c0V-68" target="yVg1O4QGDpadz5h29c0V-71">
          <mxGeometry relative="1" as="geometry">
            <mxPoint x="565" y="540" as="targetPoint" />
          </mxGeometry>
        </mxCell>
        <mxCell id="yVg1O4QGDpadz5h29c0V-76" value="Regular" style="edgeLabel;html=1;align=center;verticalAlign=middle;resizable=0;points=[];fontSize=12;" vertex="1" connectable="0" parent="yVg1O4QGDpadz5h29c0V-73">
          <mxGeometry x="0.1864" y="2" relative="1" as="geometry">
            <mxPoint x="20" y="8" as="offset" />
          </mxGeometry>
        </mxCell>
        <mxCell id="yVg1O4QGDpadz5h29c0V-74" style="edgeStyle=orthogonalEdgeStyle;rounded=0;orthogonalLoop=1;jettySize=auto;html=1;entryX=0.5;entryY=0;entryDx=0;entryDy=0;fontSize=12;" edge="1" parent="WIyWlLk6GJQsqaUBKTNV-1" source="yVg1O4QGDpadz5h29c0V-68" target="yVg1O4QGDpadz5h29c0V-72">
          <mxGeometry relative="1" as="geometry" />
        </mxCell>
        <mxCell id="yVg1O4QGDpadz5h29c0V-75" value="mode" style="edgeLabel;html=1;align=center;verticalAlign=middle;resizable=0;points=[];fontSize=12;" vertex="1" connectable="0" parent="yVg1O4QGDpadz5h29c0V-74">
          <mxGeometry x="-0.8908" y="3" relative="1" as="geometry">
            <mxPoint x="22" y="18" as="offset" />
          </mxGeometry>
        </mxCell>
        <mxCell id="yVg1O4QGDpadz5h29c0V-77" value="Competitve" style="edgeLabel;html=1;align=center;verticalAlign=middle;resizable=0;points=[];fontSize=12;" vertex="1" connectable="0" parent="yVg1O4QGDpadz5h29c0V-74">
          <mxGeometry x="0.1745" y="-3" relative="1" as="geometry">
            <mxPoint x="-23" y="7" as="offset" />
          </mxGeometry>
        </mxCell>
        <mxCell id="yVg1O4QGDpadz5h29c0V-68" value="Mock execution PASS" style="ellipse;whiteSpace=wrap;html=1;fontSize=12;" vertex="1" parent="WIyWlLk6GJQsqaUBKTNV-1">
          <mxGeometry x="510" y="420" width="110" height="60" as="geometry" />
        </mxCell>
        <mxCell id="yVg1O4QGDpadz5h29c0V-78" style="edgeStyle=orthogonalEdgeStyle;rounded=0;orthogonalLoop=1;jettySize=auto;html=1;fontSize=12;entryX=0.5;entryY=0;entryDx=0;entryDy=0;" edge="1" parent="WIyWlLk6GJQsqaUBKTNV-1" source="yVg1O4QGDpadz5h29c0V-71" target="yVg1O4QGDpadz5h29c0V-79">
          <mxGeometry relative="1" as="geometry">
            <mxPoint x="455" y="730" as="targetPoint" />
          </mxGeometry>
        </mxCell>
        <mxCell id="yVg1O4QGDpadz5h29c0V-71" value="Run code without tests" style="rounded=1;whiteSpace=wrap;html=1;fontSize=12;" vertex="1" parent="WIyWlLk6GJQsqaUBKTNV-1">
          <mxGeometry x="410" y="610" width="90" height="50" as="geometry" />
        </mxCell>
        <mxCell id="yVg1O4QGDpadz5h29c0V-82" style="edgeStyle=orthogonalEdgeStyle;rounded=0;orthogonalLoop=1;jettySize=auto;html=1;entryX=0.5;entryY=0;entryDx=0;entryDy=0;fontSize=12;" edge="1" parent="WIyWlLk6GJQsqaUBKTNV-1" source="yVg1O4QGDpadz5h29c0V-72" target="yVg1O4QGDpadz5h29c0V-81">
          <mxGeometry relative="1" as="geometry" />
        </mxCell>
        <mxCell id="yVg1O4QGDpadz5h29c0V-72" value="Run code for all tests" style="rounded=1;whiteSpace=wrap;html=1;fontSize=12;" vertex="1" parent="WIyWlLk6GJQsqaUBKTNV-1">
          <mxGeometry x="620" y="610" width="100" height="50" as="geometry" />
        </mxCell>
        <mxCell id="yVg1O4QGDpadz5h29c0V-79" value="Write test result into regular_output.json" style="ellipse;whiteSpace=wrap;html=1;fontSize=12;" vertex="1" parent="WIyWlLk6GJQsqaUBKTNV-1">
          <mxGeometry x="395" y="770" width="120" height="60" as="geometry" />
        </mxCell>
        <mxCell id="yVg1O4QGDpadz5h29c0V-81" value="Write each test result into {test_id}.json" style="ellipse;whiteSpace=wrap;html=1;fontSize=12;" vertex="1" parent="WIyWlLk6GJQsqaUBKTNV-1">
          <mxGeometry x="610" y="770" width="120" height="60" as="geometry" />
        </mxCell>
        <mxCell id="yVg1O4QGDpadz5h29c0V-83" value="Check code result in output directory" style="ellipse;whiteSpace=wrap;html=1;fontSize=12;" vertex="1" parent="WIyWlLk6GJQsqaUBKTNV-1">
          <mxGeometry x="580" y="925" width="130" height="90" as="geometry" />
        </mxCell>
      </root>
    </mxGraphModel>
  </diagram>
</mxfile>
